<?xml version="1.0" standalone="no"?>
<!DOCTYPE svg PUBLIC "-//W3C//DTD SVG 20010904//EN"
 "http://www.w3.org/TR/2001/REC-SVG-20010904/DTD/svg10.dtd">
<svg version="1.0" xmlns="http://www.w3.org/2000/svg"
 width="221.000000pt" height="256.000000pt" viewBox="0 0 221.000000 256.000000"
 preserveAspectRatio="xMidYMid meet">

<g transform="translate(0.000000,256.000000) scale(0.100000,-0.100000)"
fill="#000000" stroke="none">
<path d="M1012 2126 l-163 -40 7 -30 c13 -59 14 -59 -73 -79 -47 -10 -83 -24
-83 -30 0 -7 4 -27 9 -45 11 -35 11 -35 -42 -46 -22 -5 -27 -11 -23 -26 3 -11
8 -28 11 -39 5 -15 -3 -21 -39 -30 -44 -11 -45 -11 -35 -43 14 -51 12 -57 -26
-64 -43 -8 -48 -14 -39 -60 l7 -36 47 7 c47 6 47 6 54 -26 9 -47 9 -47 -35
-54 -41 -7 -41 -7 -34 -44 9 -49 14 -52 59 -40 21 6 39 9 41 7 1 -2 7 -21 12
-43 5 -22 14 -39 19 -38 5 1 25 4 44 8 l36 6 18 -75 c10 -41 15 -80 12 -85 -3
-5 -22 -12 -42 -15 -38 -8 -38 -10 -18 -78 4 -13 -4 -19 -33 -27 -52 -15 -51
-15 -59 24 -8 43 -16 48 -55 40 -30 -7 -31 -8 -25 -48 4 -23 9 -43 11 -45 2
-2 19 1 39 6 40 11 41 11 51 -36 6 -30 5 -33 -25 -39 -17 -3 -34 -11 -36 -18
-3 -7 3 -45 14 -86 l19 -74 41 3 c40 3 41 2 48 -32 7 -40 6 -40 54 -26 40 12
46 7 55 -41 7 -36 6 -37 -32 -46 -39 -9 -41 -14 -32 -73 3 -22 -1 -26 -34 -34
-36 -9 -37 -11 -31 -40 3 -17 7 -35 8 -40 0 -4 -16 -13 -37 -20 -41 -12 -42
-13 -32 -64 7 -36 9 -36 77 -16 14 4 20 -4 29 -39 l11 -44 79 20 80 20 -3 45
c-3 46 -3 46 35 55 41 10 41 11 21 79 -4 13 4 19 35 28 39 10 39 11 30 43 -5
17 -9 35 -9 38 0 7 170 52 175 47 2 -2 6 -20 10 -40 7 -36 7 -37 -34 -48 -23
-6 -41 -14 -41 -18 1 -14 39 -154 44 -159 2 -3 39 3 81 13 l76 18 -6 36 c-4
19 -7 39 -8 44 -1 5 36 19 83 31 47 12 84 26 83 31 -1 5 -4 25 -8 45 -7 36 -6
37 29 43 35 7 36 8 34 48 -3 39 -1 42 32 51 19 5 36 10 38 12 2 1 -7 41 -18
87 l-22 85 -39 -10 c-22 -5 -42 -7 -45 -4 -5 5 -63 223 -64 239 0 4 18 12 40
18 45 12 45 14 25 90 -22 81 -20 87 23 97 39 10 40 14 28 75 -5 24 -2 27 34
33 36 6 39 9 34 31 -13 51 -10 57 29 67 22 5 37 15 37 24 0 13 -25 120 -35
150 -2 8 -51 -1 -157 -28 -84 -21 -161 -39 -170 -39 -12 0 -19 11 -24 36 -6
33 -8 35 -38 28 -17 -3 -35 -7 -40 -8 -10 -1 -31 72 -23 80 5 5 223 63 239 64
4 0 10 -16 14 -35 8 -43 16 -48 55 -40 28 6 30 9 27 53 -3 44 -2 46 32 55 19
5 36 10 38 12 2 2 -2 22 -8 44 -8 32 -15 41 -28 37 -69 -20 -70 -20 -78 19
l-7 37 -42 -7 -43 -6 -7 41 c-4 22 -12 40 -18 40 -7 0 -46 -9 -87 -20 -41 -10
-76 -18 -77 -16 -2 2 -9 21 -16 43 l-12 39 -163 -40z m33 -1208 c7 -36 6 -37
-34 -48 -41 -11 -41 -11 -35 -50 l6 -39 -43 -11 c-24 -6 -59 -15 -78 -20 -19
-5 -36 -8 -37 -7 -4 3 -43 161 -41 163 12 8 244 60 249 55 3 -3 9 -23 13 -43z" fill= "white"/>
<path d="M580 2021 c-36 -9 -65 -22 -64 -29 6 -76 8 -77 98 -56 78 18 80 20
70 73 -7 36 -12 36 -104 12z" fill= "white"/>
<path d="M374 1969 c-31 -9 -31 -9 -20 -50 10 -39 12 -41 45 -35 18 3 35 7 38
10 7 6 -17 86 -25 85 -4 0 -21 -5 -38 -10z" fill= "white" />
<path d="M362 1782 c-63 -16 -63 -16 -56 -46 3 -17 9 -35 14 -39 7 -8 138 20
153 33 4 3 4 21 1 38 -8 37 -16 38 -112 14z" fill= "white" />
<path d="M290 1588 c-19 -5 -52 -14 -73 -19 -38 -10 -39 -11 -32 -47 4 -20 9
-40 11 -43 3 -6 154 27 162 36 6 6 -19 85 -26 84 -4 0 -23 -5 -42 -11z" fill= "white"/>
<path d="M382 1436 l-84 -20 7 -40 c3 -22 8 -42 10 -44 4 -5 150 29 165 38 6
4 6 20 -3 46 l-12 40 -83 -20z" fill= "white" />
<path d="M287 1051 c-37 -9 -68 -19 -68 -21 -2 -21 15 -80 23 -80 10 0 121 27
145 35 15 5 -5 85 -21 84 -6 -1 -42 -9 -79 -18z" fill= "white"/>
<path d="M457 918 c-28 -8 -36 -14 -33 -27 3 -9 8 -29 12 -44 4 -19 11 -26 23
-23 9 3 28 8 42 11 25 6 26 8 16 51 -6 24 -13 44 -16 43 -3 -1 -23 -6 -44 -11z" fill= "white"/>
<path d="M540 578 c-19 -5 -52 -14 -73 -19 -38 -10 -39 -11 -32 -47 4 -20 9
-40 11 -43 3 -6 154 27 162 36 6 6 -19 85 -26 84 -4 0 -23 -5 -42 -11z" fill= "white"/>
<path d="M450 381 c-36 -9 -65 -22 -64 -29 6 -76 8 -77 98 -56 78 18 80 20 70
73 -7 36 -12 36 -104 12z" fill= "white"/>
</g>
</svg>
