<?xml version="1.0" standalone="no"?>
<!DOCTYPE svg PUBLIC "-//W3C//DTD SVG 20010904//EN"
 "http://www.w3.org/TR/2001/REC-SVG-20010904/DTD/svg10.dtd">
<svg version="1.0" xmlns="http://www.w3.org/2000/svg"
 width="301.000000pt" height="119.000000pt" viewBox="0 0 301.000000 119.000000"
 preserveAspectRatio="xMidYMid meet">

<g transform="translate(0.000000,119.000000) scale(0.100000,-0.100000)"
fill="#000000" stroke="none">
<path d="M110 571 l0 -301 55 0 55 0 0 191 c0 157 2 190 14 187 7 -2 78 -84
156 -183 79 -99 148 -183 154 -187 6 -4 30 -8 54 -8 l42 0 0 300 0 300 -55 0
-55 0 0 -191 c0 -145 -3 -190 -12 -187 -7 3 -78 87 -159 189 l-146 184 -51 3
-52 3 0 -300z" fill= "white"/>
<path d="M1930 571 l0 -301 65 0 64 0 3 103 3 102 91 6 c116 7 171 35 204 104
30 61 25 155 -9 203 -45 64 -87 76 -263 80 l-158 4 0 -301z m279 194 c34 -17
54 -66 45 -109 -12 -64 -47 -86 -133 -86 l-61 0 0 105 0 105 60 0 c34 0 74 -7
89 -15z" fill= "white"/>
<path d="M1366 675 c-44 -30 -42 -30 -49 -5 -4 16 -14 20 -51 20 l-46 0 0
-210 0 -210 55 0 55 0 0 160 0 159 30 16 c39 20 66 19 90 -5 18 -18 20 -33 20
-175 l0 -155 60 0 60 0 0 155 c0 142 2 157 20 175 24 24 57 26 88 4 21 -15 22
-21 22 -175 l0 -159 60 0 60 0 0 157 c0 182 -13 228 -74 257 -66 31 -157 14
-197 -37 -17 -21 -17 -21 -52 16 -43 47 -94 51 -151 12z" fill= "white" />
<path d="M732 528 c3 -178 12 -208 65 -243 46 -31 129 -23 185 17 15 11 20 9
33 -10 13 -17 26 -22 61 -22 l44 0 0 210 0 210 -60 0 -60 0 0 -155 0 -154 -30
-16 c-39 -20 -83 -19 -103 3 -14 16 -17 43 -17 170 l0 152 -61 0 -61 0 4 -162z" fill= "white"/>
<path d="M2449 648 c10 -24 48 -111 85 -194 l66 -152 -40 -86 -40 -87 57 3 56
3 117 275 117 275 -51 3 c-63 4 -64 2 -112 -140 -20 -60 -41 -107 -46 -106 -6
2 -27 49 -48 105 -57 150 -51 143 -120 143 l-59 0 18 -42z" fill= "white" />
</g>
</svg>
