<svg id="SvgjsSvg1028" width="288" height="288" xmlns="http://www.w3.org/2000/svg" version="1.1" xmlns:xlink="http://www.w3.org/1999/xlink" xmlns:svgjs="http://svgjs.com/svgjs"><defs id="SvgjsDefs1029"></defs><g id="SvgjsG1030"><svg xmlns="http://www.w3.org/2000/svg" xmlns:xlink="http://www.w3.org/1999/xlink" viewBox="0 0 600 739" width="288" height="288"><defs><path id="a" d="M -69.6503905 120.638015113  A 139.300781 139.300781 120 1 1 +69.6503905 120.638015113  L 27.7089845 47.9933689801  A 55.417969 55.417969 120 1 0 -27.7089845 47.9933689801  L -69.6503905 120.638015113  Z" fill="white" class="color000 svgShape"></path></defs><use x="298" y="140" fill="white" xlink:href="#a"></use><use x="457" y="415" fill="white" transform="rotate(180 457 415)" xlink:href="#a"></use><use x="142" y="415" fill="white" transform="rotate(240 142 415)" xlink:href="#a"></use><g fill-rule="evenodd" fill="#000000" class="color000 svgShape"><path fill="white" d="M42.48 587.7C54.27 586.64 66.19 586.65 77.92 588.33 85.15 589.61 92.82 591.48 98.25 596.75 103.94 603.1 105.34 611.92 106.59 620.05 108.64 636.92 108.4 654.03 106.59 670.91 105.38 679.15 104.19 688.05 98.79 694.75 92.9 700.73 84.2 702.43 76.22 703.69 64.44 705.16 52.49 705.5 40.66 704.32 32.65 703.5 24.29 702.09 17.47 697.52 13.06 694.72 10.69 689.78 9.08 684.99 5.85 675.01 5.44 664.41 5 654.01 4.95 640.27 5.21 626.39 7.89 612.87 9.34 606.56 11.1 599.62 16.43 595.41 23.94 589.96 33.49 588.64 42.48 587.7zM44.43 606.53C54.42 605.73 64.62 605.49 74.5 607.43 78.33 608.2 82.85 610.06 83.57 614.42 86.57 626.69 85.87 639.47 85.99 652.01 85.62 660.93 85.83 670.15 82.84 678.69 80.23 684.3 73.12 684.76 67.76 685.58 57.01 686.19 45.85 686.73 35.42 683.54 30.61 682.27 29.09 677.11 28.35 672.78 26.35 659.95 27 646.9 27.25 633.97 27.78 626.72 27.69 619.2 30.3 612.31 33.29 607.69 39.47 607.28 44.43 606.53zM149.77 626.78C156.93 622.23 165.82 621.49 174.08 622.24 181.79 622.9 190.35 625.52 194.48 632.62 199.41 641.53 199.69 652.06 200.03 662 199.81 672.22 199.62 682.89 195.4 692.39 192.99 698.16 187.45 701.94 181.52 703.43 172.44 705.66 162.46 705.9 153.71 702.28 148.98 700.43 145.71 696.41 143 692.29 143 707.86 143 723.43 143 739L123 739C123.01 700.34 122.98 661.67 123.01 623.01 129.48 622.98 135.95 622.98 142.41 623.01 142.19 626.99 141.97 630.96 141.86 634.95 144.26 632.02 146.49 628.8 149.77 626.78zM156.28 637.22C161.88 636.79 167.8 636.67 173.04 638.98 176.36 640.41 178.11 643.92 178.7 647.32 180.44 656.09 180.22 665.15 179.6 674.03 178.98 679.39 178.12 686.33 172.22 688.41 165.4 690.64 157.62 690.78 150.88 688.17 144.61 685.53 143.88 677.94 143.26 672.05 142.89 663.01 142.44 653.71 144.99 644.93 146.34 639.95 151.52 637.59 156.28 637.22zM223.96 626.93C233.79 621.88 245.3 621.7 256.09 622.21 265.07 622.96 275.97 624.46 280.92 633.05 286.5 643.42 285.59 655.62 286.37 667 268.13 667 249.89 667 231.66 667 232.3 672.87 231.54 679.2 234.5 684.58 237.03 688.83 242.4 689.7 246.94 689.95 252.55 689.99 258.59 690.45 263.76 687.84 266.72 685.52 266.74 681.4 267.12 678 273.52 677.99 279.92 677.99 286.32 678 286.08 684.68 285.22 692.16 279.86 696.86 271.81 704.08 260.29 704.83 249.99 705.03 240.9 704.76 231.3 704.3 223.16 699.82 216.57 695.93 214.47 687.94 213.31 680.9 211.84 670.44 211.47 659.78 212.72 649.28 213.74 640.99 215.97 631.24 223.96 626.93zM235.65 639.66C241.11 636.34 247.87 637.01 254 637.1 257.8 637.51 262.43 637.73 264.9 641.09 267.42 645.24 266.97 650.32 266.99 654.98 255.22 655 243.46 655.03 231.7 654.97 231.88 649.79 231.47 643.47 235.65 639.66zM328.96 626.88C335.88 622.08 344.82 621.41 352.96 622.35 359.89 623.08 367.23 625.72 371.32 631.7 374.95 636.66 375.96 642.98 376.01 648.99 375.98 667.33 376.02 685.66 376 704 369.66 704.01 363.33 704.01 357.01 704 356.98 686.65 357.03 669.31 356.98 651.97 356.79 648.18 356.94 643.8 354.09 640.88 351.05 637.59 346.28 636.95 342.03 636.98 336.89 636.95 331.33 637.83 327.37 641.38 323.5 644.68 322.03 650 322.01 654.92 321.98 671.28 322.02 687.64 321.99 703.99 315.66 704.01 309.33 704.01 303.01 704 303 677 303 650 303.01 623 309.23 622.98 315.46 622.99 321.68 623 321.65 627.74 321.18 632.45 321.04 637.19 323.08 633.36 325.22 629.32 328.96 626.88zM410.39 591.4C420.87 587.88 432.04 587.38 443 586.99 453.62 587.04 464.72 587.14 474.64 591.42 479.68 593.52 483.17 598.12 484.87 603.2 487.64 610.79 487.72 619.01 487.78 627 480.47 627 473.16 627.02 465.86 626.99 465.74 621.37 466.17 615.07 462.69 610.29 459.17 606.69 453.67 606.7 449 606.15 439.5 605.97 429.61 605.36 420.51 608.64 417.23 609.68 415.53 612.96 414.87 616.12 413 624.6 412.99 633.35 413 642 413.11 653.56 412.93 665.29 415.4 676.66 416.05 680.82 419.88 683.38 423.72 684.3 432.6 686.51 441.87 686.19 450.94 685.65 455.67 685.03 461.43 684.72 464.4 680.38 467.57 675.2 467.04 668.83 466.87 663.01 474.25 662.98 481.62 662.99 489 663.01 488.91 672.2 488.75 681.69 485.41 690.39 483.69 694.94 480.14 698.8 475.54 700.54 466.51 704.16 456.61 704.39 447.03 704.97 435.92 705.16 424.67 704.89 413.81 702.3 407.44 700.64 400.48 697.72 397.53 691.39 393.76 683.02 393.07 673.71 392.1 664.7 391.29 652.8 390.77 640.88 391.06 628.96 391.63 619.31 392.51 609.14 397.72 600.73 400.49 596.05 405.35 593.12 410.39 591.4zM492.6 588.03C500.22 588.04 507.84 587.82 515.45 588.14 522.86 611.65 531 634.92 538.48 658.4 541.39 667.42 543.45 676.7 546.46 685.69 549.83 675.99 551.99 665.91 555.29 656.19 562.6 633.48 570.11 610.84 577.41 588.13 584.93 587.81 592.47 588.09 600 587.99L600 590.48C587.62 628.21 575.53 666.04 563.4 703.86 552.08 704.09 540.74 704.12 529.42 703.84 517.36 665.17 504.72 626.68 492.6 588.03z" class="color050505 svgShape"></path></g></svg></g></svg>