<?xml version="1.0" standalone="no"?>
<!DOCTYPE svg PUBLIC "-//W3C//DTD SVG 20010904//EN"
 "http://www.w3.org/TR/2001/REC-SVG-20010904/DTD/svg10.dtd">
<svg version="1.0" xmlns="http://www.w3.org/2000/svg"
 width="288" height="288" viewBox="0 0 512.000000 207.000000"
 preserveAspectRatio="xMidYMid meet">
<metadata>
Created by potrace 1.16, written by Peter Selinger 2001-2019
</metadata>
<g transform="translate(0.000000,207.000000) scale(0.100000,-0.100000)"
fill="#000000" stroke="none">
<path d="M940 1205 l0 -525 80 0 80 0 0 525 0 525 -80 0 -80 0 0 -525z" fill="white"/>
<path d="M470 1485 l0 -166 78 3 77 3 3 163 2 162 -80 0 -80 0 0 -165z" fill="white"/>
<path d="M3680 1390 l0 -120 -42 27 c-57 38 -165 45 -225 15 -176 -90 -175
-386 1 -468 84 -39 178 -28 241 28 l35 30 0 -36 0 -36 60 0 60 0 0 340 0 340
-65 0 -65 0 0 -120z m-53 -192 c36 -33 53 -71 53 -118 0 -90 -51 -150 -127
-150 -57 0 -95 27 -117 80 -32 79 -11 154 54 198 43 29 100 25 137 -10z" fill="white"/>
<path d="M220 865 l0 -525 80 0 80 0 0 525 0 525 -80 0 -80 0 0 -525z" fill="white"/>
<path d="M700 1230 l0 -160 80 0 80 0 0 160 0 160 -80 0 -80 0 0 -160z" fill="white"/>
<path d="M4655 1330 c-93 -14 -150 -77 -142 -159 3 -24 14 -55 24 -70 25 -32
85 -67 132 -76 89 -16 122 -52 84 -90 -23 -23 -123 -16 -182 13 -25 12 -48 19
-52 15 -5 -5 -11 -27 -15 -50 l-7 -43 49 -22 c70 -33 223 -33 274 -1 40 25 60
53 71 103 18 77 -25 142 -113 173 -147 51 -139 47 -136 76 6 48 88 50 195 5
10 -5 33 51 33 82 0 13 -82 41 -135 46 -22 2 -58 1 -80 -2z" fill="white"/>
<path d="M1731 1319 c-13 -5 -36 -18 -51 -29 -36 -26 -40 -25 -40 5 0 24 -3
25 -60 25 l-60 0 0 -350 0 -350 65 0 65 0 0 136 0 136 30 -26 c86 -72 245 -53
315 37 98 129 56 347 -79 411 -38 18 -146 21 -185 5z m126 -121 c71 -65 70
-190 -2 -246 -38 -30 -112 -30 -150 0 -84 66 -66 227 30 269 32 14 95 3 122
-23z" fill="white"/>
<path d="M2242 1309 c-80 -40 -121 -118 -121 -234 -1 -152 94 -255 234 -255
42 0 117 29 147 57 17 15 18 14 18 -15 l0 -32 65 0 65 0 0 245 0 245 -65 0
-65 0 0 -32 0 -31 -23 21 c-58 55 -177 69 -255 31z m205 -99 c89 -54 90 -212
3 -264 -62 -36 -141 -12 -175 54 -22 42 -19 128 5 168 36 58 110 77 167 42z" fill="white"/>
<path d="M2955 1313 c-16 -8 -42 -27 -57 -41 l-28 -26 0 37 0 37 -65 0 -65 0
0 -245 0 -245 70 0 70 0 0 145 c0 112 4 153 15 176 29 55 107 85 155 59 31
-17 40 -67 40 -226 l0 -154 71 0 71 0 -4 188 c-3 210 -13 245 -78 290 -41 27
-147 30 -195 5z" fill="white"/>
<path d="M4015 1314 c-77 -40 -125 -115 -133 -209 -13 -162 87 -285 230 -285
45 0 116 25 143 50 24 23 35 17 35 -17 0 -22 4 -23 60 -23 l60 0 0 245 0 245
-60 0 c-52 0 -60 -3 -60 -18 0 -29 -11 -33 -39 -14 -14 10 -39 23 -54 30 -40
17 -146 15 -182 -4z m196 -107 c64 -42 87 -131 53 -203 -48 -101 -188 -100
-230 2 -57 136 66 275 177 201z" fill="white"/>
<path d="M470 845 l0 -165 80 0 80 0 -2 163 -3 162 -77 3 -78 3 0 -166z" fill="white"/>
<path d="M700 910 l0 -80 80 0 80 0 0 80 0 80 -80 0 -80 0 0 -80z" fill="white"/>
<path d="M700 585 l0 -165 80 0 80 0 0 165 0 165 -80 0 -80 0 0 -165z" fill="white"/>
</g>
</svg>
