<svg width="287.5" height="93.6" viewBox="0 0 287.5 93.6" xmlns="http://www.w3.org/2000/svg"><g id="svgGroup" stroke-linecap="round" fill-rule="evenodd" font-size="9pt" stroke="#ffffff" stroke-width="0.25mm" fill="#ffffff" style="stroke:#ffffff;stroke-width:0.25mm;fill:#ffffff"><path d="M 51.2 71.2 L 35.2 71.2 L 12.7 37.75 L 12.7 71.2 L 0 71.2 L 0 1.5 L 12.7 1.5 L 12.7 36.2 L 34.9 1.5 L 49.6 1.5 L 25.85 36.1 L 51.2 71.2 Z M 172.6 68.8 L 172.6 61 Q 171.35 65.6 168.25 68.7 A 10.178 10.178 0 0 1 163.436 71.36 Q 161.828 71.766 159.925 71.797 A 19.491 19.491 0 0 1 159.6 71.8 A 22.305 22.305 0 0 1 153.724 71.053 A 18.642 18.642 0 0 1 149.175 69.15 A 16.373 16.373 0 0 1 144.067 64.377 A 22.473 22.473 0 0 1 142.025 60.8 A 26.144 26.144 0 0 1 140.231 55.238 Q 139.661 52.534 139.482 49.384 A 52.61 52.61 0 0 1 139.4 46.4 Q 139.4 37.55 142 31.675 A 22.938 22.938 0 0 1 144.505 27.301 A 16.643 16.643 0 0 1 149.1 23 A 18.66 18.66 0 0 1 158.242 20.225 A 22.548 22.548 0 0 1 159.3 20.2 A 18.24 18.24 0 0 1 162.507 20.468 Q 164.436 20.813 166.025 21.6 A 13.314 13.314 0 0 1 168.654 23.292 A 10.833 10.833 0 0 1 170.475 25.225 A 12.084 12.084 0 0 1 172.395 29.133 A 11.49 11.49 0 0 1 172.6 30 L 174 21.4 L 183.8 21.4 L 183.8 68.8 A 38.251 38.251 0 0 1 183.307 75.104 Q 182.668 78.928 181.2 82.075 Q 178.6 87.65 173.5 90.625 A 21.025 21.025 0 0 1 167.135 93.01 Q 164.473 93.563 161.41 93.598 A 36.341 36.341 0 0 1 161 93.6 Q 155.55 93.6 151.125 92.275 A 42.792 42.792 0 0 1 148.021 91.221 Q 146.44 90.613 145.116 89.932 A 22.093 22.093 0 0 1 143.8 89.2 L 149.4 79.8 Q 154.05 82.7 159.8 82.7 A 19.737 19.737 0 0 0 163.426 82.389 Q 167.217 81.679 169.425 79.35 Q 171.768 76.878 172.382 72.308 A 26.411 26.411 0 0 0 172.6 68.8 Z M 128.1 38.3 L 128.1 71.2 L 115.3 71.2 L 115.3 39.4 A 16.314 16.314 0 0 0 115.087 36.682 Q 114.835 35.191 114.284 33.987 A 8.271 8.271 0 0 0 113.5 32.625 A 5.845 5.845 0 0 0 109.252 30.162 A 8.689 8.689 0 0 0 108.2 30.1 Q 105.85 30.1 103.825 31.3 Q 101.8 32.5 100.6 34.625 A 9.365 9.365 0 0 0 99.419 38.741 A 11.288 11.288 0 0 0 99.4 39.4 L 99.4 71.2 L 86.6 71.2 L 86.6 21.4 L 98.2 21.4 L 98.45 27.95 A 17.443 17.443 0 0 1 103.789 22.652 Q 107.245 20.516 111.745 20.241 A 22.183 22.183 0 0 1 113.1 20.2 A 18.633 18.633 0 0 1 117.593 20.709 A 12.067 12.067 0 0 1 124.325 24.925 Q 128.1 29.65 128.1 38.3 Z M 254.7 71.2 L 250.8 61.1 L 225.9 61.1 L 222.2 71.2 L 208.2 71.2 L 237.7 0.3 L 238.7 0.3 L 268.3 71.2 L 254.7 71.2 Z M 274.7 71.2 L 274.7 1.5 L 287.5 1.5 L 287.5 71.2 L 274.7 71.2 Z M 58.7 71.2 L 58.7 21.4 L 71.7 21.4 L 71.7 71.2 L 58.7 71.2 Z M 162.1 62 A 7.301 7.301 0 0 0 167.874 59.381 A 10.427 10.427 0 0 0 168.95 57.875 A 14.947 14.947 0 0 0 170.443 54.3 Q 170.951 52.504 171.19 50.33 A 37.99 37.99 0 0 0 171.4 46.2 A 40.174 40.174 0 0 0 171.183 41.883 Q 170.705 37.472 169.175 34.55 A 9.08 9.08 0 0 0 167.521 32.263 Q 165.556 30.331 162.594 30.3 A 9.24 9.24 0 0 0 162.5 30.3 Q 159.75 30.3 157.45 31.9 Q 155.532 33.234 154.222 35.942 A 17.401 17.401 0 0 0 153.725 37.075 A 17.666 17.666 0 0 0 152.829 40.185 Q 152.515 41.771 152.387 43.63 A 39.02 39.02 0 0 0 152.3 46.3 A 36.348 36.348 0 0 0 152.536 50.592 Q 153.07 55.067 154.812 57.802 A 10.582 10.582 0 0 0 154.975 58.05 A 9.781 9.781 0 0 0 157.179 60.418 A 7.965 7.965 0 0 0 162.1 62 Z M 229.5 51.4 L 247.1 51.4 L 239.8 32.4 L 238.1 26.8 L 236.5 32.4 L 229.5 51.4 Z M 58.2 13.3 L 58.2 0 L 72.2 0 L 72.2 13.3 L 58.2 13.3 Z" vector-effect="non-scaling-stroke"/></g></svg>